<svg xmlns="http://www.w3.org/2000/svg" aria-hidden="true" style="position:absolute;width:0;height:0;overflow:hidden">
  <defs>
    <symbol id="icon-heart1" viewBox="0 0 32 32">
      <path d="m16 5.496-1.434-1.474C11.2.562 5.028 1.756 2.8 6.106c-1.046 2.046-1.282 5 .628 8.77C5.268 18.506 9.096 22.854 16 27.59c6.904-4.736 10.73-9.084 12.572-12.714 1.91-3.772 1.676-6.724.628-8.77C26.972 1.756 20.8.56 17.434 4.02L16 5.496zM16 30C-14.666 9.736 6.558-6.08 15.648 2.286c.12.111.237.225.352.342a5.94 5.94 0 0 1 .352-.34C25.44-6.084 46.666 9.734 16 30z"/>
    </symbol>
    <symbol id="icon-uparrow" viewBox="0 0 32 32">
      <path d="M14.293 8.294a.991.991 0 0 1 .708-.293 1.002 1.002 0 0 1 .708.293l12 12a1 1 0 0 1-.708 1.709 1 1 0 0 1-.708-.293L15.001 10.416 3.709 21.71A1 1 0 0 1 2 21.002a1 1 0 0 1 .293-.708l12-12z"/>
    </symbol>
    <symbol id="icon-heart2" viewBox="0 0 32 32">
      <path d="M16 2.628C24.876-6.496 47.068 9.47 16 30-15.068 9.472 7.124-6.496 16 2.628z"/>
    </symbol>
    <symbol id="icon-downarrow" viewBox="0 0 32 32">
      <path d="M2.294 8.294a.991.991 0 0 1 .708-.293 1.002 1.002 0 0 1 .708.293l11.292 11.294L26.294 8.294a.991.991 0 0 1 .708-.293 1.006 1.006 0 0 1 .925.618 1.006 1.006 0 0 1-.217 1.091l-12 12a.991.991 0 0 1-.708.293 1.002 1.002 0 0 1-.708-.293l-12-12a.991.991 0 0 1-.293-.708 1.002 1.002 0 0 1 .293-.708z"/>
    </symbol>
    <symbol id="icon-check-circle" viewBox="0 0 32 32">
      <path d="M16 30A14.002 14.002 0 0 1 2 16a13.998 13.998 0 1 1 23.899 9.899A13.996 13.996 0 0 1 16 30zm0 2a15.997 15.997 0 0 0 16-16A15.997 15.997 0 0 0 16 0 15.997 15.997 0 0 0 0 16a15.997 15.997 0 0 0 16 16z"/>
      <path d="m21.94 9.94-.04.044-6.946 8.85-4.186-4.188a1.497 1.497 0 0 0-2.083.037 1.5 1.5 0 0 0-.037 2.083l5.292 5.294a1.482 1.482 0 0 0 1.087.438 1.51 1.51 0 0 0 1.071-.478l7.984-9.98a1.502 1.502 0 0 0-1.09-2.535 1.498 1.498 0 0 0-1.052.435z"/>
    </symbol>
    <symbol id="icon-gear" viewBox="0 0 32 32">
      <path d="M16 9.508a6.49 6.49 0 1 0 6.492 6.49 6.495 6.495 0 0 0-1.901-4.591A6.495 6.495 0 0 0 16 9.506zM11.508 16A4.489 4.489 0 0 1 16 11.508 4.489 4.489 0 0 1 20.492 16 4.489 4.489 0 0 1 16 20.492 4.489 4.489 0 0 1 11.508 16z"/>
      <path d="M19.592 2.686c-1.054-3.58-6.13-3.58-7.184 0l-.188.638a1.754 1.754 0 0 1-1.006 1.12 1.756 1.756 0 0 1-1.504-.079l-.584-.32c-3.28-1.784-6.866 1.804-5.08 5.082l.318.584a1.746 1.746 0 0 1-1.041 2.51l-.638.188c-3.58 1.054-3.58 6.13 0 7.184l.638.188a1.754 1.754 0 0 1 1.12 1.006 1.756 1.756 0 0 1-.079 1.504l-.32.584c-1.784 3.28 1.802 6.868 5.082 5.08l.584-.318a1.746 1.746 0 0 1 2.51 1.04l.188.638c1.054 3.58 6.13 3.58 7.184 0l.188-.638a1.754 1.754 0 0 1 1.006-1.12 1.74 1.74 0 0 1 1.504.08l.584.32c3.28 1.786 6.868-1.804 5.08-5.082l-.318-.584a1.746 1.746 0 0 1 1.04-2.51l.638-.188c3.58-1.054 3.58-6.13 0-7.184l-.638-.188a1.754 1.754 0 0 1-1.12-1.006 1.74 1.74 0 0 1 .08-1.504l.32-.584c1.786-3.28-1.804-6.866-5.082-5.08l-.584.318a1.746 1.746 0 0 1-2.51-1.041l-.188-.638zm-5.266.566c.492-1.67 2.856-1.67 3.348 0l.188.638a3.748 3.748 0 0 0 5.385 2.23l.582-.32c1.528-.83 3.2.84 2.368 2.37l-.318.584a3.74 3.74 0 0 0-.17 3.225 3.75 3.75 0 0 0 2.403 2.159l.636.188c1.67.492 1.67 2.856 0 3.348l-.638.188a3.748 3.748 0 0 0-2.23 5.385l.32.582c.83 1.528-.84 3.2-2.37 2.368l-.582-.318a3.76 3.76 0 0 0-3.227-.171 3.746 3.746 0 0 0-2.159 2.403l-.188.636c-.492 1.67-2.856 1.67-3.348 0l-.188-.638a3.737 3.737 0 0 0-2.16-2.401 3.752 3.752 0 0 0-3.225.171l-.584.32c-1.528.83-3.2-.84-2.368-2.37l.318-.582c.268-.491.423-1.036.452-1.594s-.066-1.116-.279-1.633a3.745 3.745 0 0 0-2.404-2.161l-.638-.188c-1.67-.492-1.67-2.856 0-3.348l.638-.188a3.742 3.742 0 0 0 2.229-5.382l-.32-.584c-.83-1.528.84-3.2 2.37-2.368l.584.318a3.756 3.756 0 0 0 3.225.171 3.748 3.748 0 0 0 2.16-2.401l.188-.638z"/>
    </symbol>
    <symbol id="icon-fuel-pump" viewBox="0 0 32 32">
      <path d="M6 5a.997.997 0 0 1 1-1h10a.997.997 0 0 1 1 1v10a.997.997 0 0 1-1 1H7a.997.997 0 0 1-1-1V5z"/>
      <path d="M2 4a4.003 4.003 0 0 1 4-4h12a4.003 4.003 0 0 1 4 4v16a4.003 4.003 0 0 1 4 4v1a.997.997 0 0 0 1 1 .997.997 0 0 0 1-1v-9h-1a.997.997 0 0 1-1-1V8.75a.997.997 0 0 1 1-1h2.99c-.022-.952-.106-1.788-.402-2.444a1.944 1.944 0 0 0-.788-.916C28.432 4.17 27.872 4 27 4a.997.997 0 0 1-1-1 .997.997 0 0 1 1-1c1.128-.003 2.069.221 2.824.672.766.456 1.268 1.102 1.588 1.814.59 1.31.588 2.93.588 4.162v6.35a.988.988 0 0 1-.293.708.991.991 0 0 1-.708.293h-1v9a3.004 3.004 0 0 1-3 3 3.004 3.004 0 0 1-3-3v-1a2 2 0 0 0-2-2v8h1a.997.997 0 0 1 1 1 .997.997 0 0 1-1 1h-22a.997.997 0 0 1-1-1 .997.997 0 0 1 1-1h1v-26zm18 0a2 2 0 0 0-2-2H6a2 2 0 0 0-2 2v26h16V4z"/>
    </symbol>
    <symbol id="icon-car" viewBox="0 0 32 32">
      <path d="M8 18a2 2 0 1 1-4.001-.001A2 2 0 0 1 8 18zm20 0a2 2 0 1 1-4.001-.001A2 2 0 0 1 28 18zm-16-2a2 2 0 0 0 0 4h8a2 2 0 0 0 0-4h-8zM9.724 8.552 7.812 12.38a1.02 1.02 0 0 0 .994 1.461c1.82-.146 4.7-.34 7.194-.34s5.376.194 7.194.34a1.018 1.018 0 0 0 .994-1.461l-1.912-3.826A1.002 1.002 0 0 0 21.382 8H10.618a1.002 1.002 0 0 0-.894.552z"/>
      <path d="M5.04 7.03A5.002 5.002 0 0 1 9.64 4h12.724a5 5 0 0 1 4.596 3.03l1.584 3.696c.15.35.42.638.76.808 1 .5 1.71 1.43 1.93 2.524l.67 3.358c.067.323.099.649.098.98v.826a4.97 4.97 0 0 1-2 3.994V27a.997.997 0 0 1-1 1h-4a.997.997 0 0 1-1-1v-2.676c-2.584.096-5.49.176-8 .176s-5.416-.08-8-.176V27a.997.997 0 0 1-1 1h-4a.997.997 0 0 1-1-1v-3.784a4.97 4.97 0 0 1-2-3.994v-.826c0-.329.033-.657.098-.98l.67-3.36a3.615 3.615 0 0 1 1.928-2.522 1.6 1.6 0 0 0 .762-.808L5.044 7.03H5.04zM9.64 6a3.004 3.004 0 0 0-2.758 1.82l-1.584 3.694a3.602 3.602 0 0 1-1.706 1.808 1.606 1.606 0 0 0-.86 1.128l-.672 3.358c-.039.194-.059.39-.06.588v.826a2.959 2.959 0 0 0 2.816 2.968c3.11.14 7.572.31 11.184.31s8.074-.168 11.184-.31A2.957 2.957 0 0 0 30 19.222v-.826c0-.197-.02-.393-.06-.588l-.67-3.36a1.611 1.611 0 0 0-.86-1.126 3.602 3.602 0 0 1-1.706-1.808L25.12 7.818A3.006 3.006 0 0 0 22.36 6H9.64z"/>
    </symbol>
    <symbol id="icon-calendar" viewBox="0 0 32 32">
      <path d="M7 0a.997.997 0 0 1 1 1v1h16V1a.997.997 0 0 1 1-1 .997.997 0 0 1 1 1v1h2a4.003 4.003 0 0 1 4 4v22a4.003 4.003 0 0 1-4 4H4a4.003 4.003 0 0 1-4-4V6a4.003 4.003 0 0 1 4-4h2V1a.997.997 0 0 1 1-1zM4 4a2 2 0 0 0-2 2v22a2 2 0 0 0 2 2h24a2 2 0 0 0 2-2V6a2 2 0 0 0-2-2H4z"/>
      <path d="M5 8a.997.997 0 0 1 1-1h20a.997.997 0 0 1 1 1v2a.997.997 0 0 1-1 1H6a.997.997 0 0 1-1-1V8zm17 7a.997.997 0 0 1 1-1h2a.997.997 0 0 1 1 1v2a.997.997 0 0 1-1 1h-2a.997.997 0 0 1-1-1v-2zm-6 0a.997.997 0 0 1 1-1h2a.997.997 0 0 1 1 1v2a.997.997 0 0 1-1 1h-2a.997.997 0 0 1-1-1v-2zM6 21a.997.997 0 0 1 1-1h2a.997.997 0 0 1 1 1v2a.997.997 0 0 1-1 1H7a.997.997 0 0 1-1-1v-2zm6 0a.997.997 0 0 1 1-1h2a.997.997 0 0 1 1 1v2a.997.997 0 0 1-1 1h-2a.997.997 0 0 1-1-1v-2z"/>
    </symbol>
    <symbol id="icon-Location" viewBox="0 0 32 32">
      <path d="M23.061 16.762c-.982 1.991-2.314 3.975-3.675 5.756a60.032 60.032 0 0 1-4.136 4.819 59.83 59.83 0 0 1-4.136-4.819c-1.361-1.781-2.692-3.765-3.675-5.756-.994-2.012-1.564-3.896-1.564-5.512a9.376 9.376 0 0 1 18.75 0c0 1.616-.572 3.501-1.564 5.512zM15.25 30S26.5 19.339 26.5 11.25a11.249 11.249 0 1 0-22.5 0C4 19.339 15.25 30 15.25 30z"/>
      <path d="M15.25 15a3.752 3.752 0 0 1-3.75-3.75 3.752 3.752 0 0 1 3.75-3.75A3.752 3.752 0 0 1 19 11.25 3.752 3.752 0 0 1 15.25 15zm0 1.875a5.63 5.63 0 0 0 5.625-5.625 5.63 5.63 0 0 0-5.625-5.625 5.63 5.63 0 0 0-5.625 5.625 5.63 5.63 0 0 0 5.625 5.625z"/>
    </symbol>
    <symbol id="icon-Logo" viewBox="0 0 208 32">
<path fill="#3470ff" style="fill: var(--color1, #3470ff)" d="M202.142 15.291c-1.366 0-2.614 0.079-3.744 0.236s-2.351 0.473-3.665 0.946v15.054h-6.857v-22.384h5.084l1.025 2.64c1.366-1.103 2.706-1.892 4.020-2.365s2.694-0.709 4.138-0.709v6.581z"></path>
<path fill="#3470ff" style="fill: var(--color1, #3470ff)" d="M184.597 31.291c-0.841 0.184-1.59 0.315-2.246 0.394-0.63 0.079-1.379 0.118-2.246 0.118-2.522 0-4.177-0.814-4.966-2.443-1.103 0.814-2.207 1.432-3.31 1.852s-2.312 0.631-3.626 0.631c-1.182 0-2.246-0.25-3.192-0.749s-1.682-1.169-2.207-2.010c-0.525-0.841-0.788-1.76-0.788-2.759 0-1.682 0.42-3.008 1.261-3.98 0.867-0.998 2.023-1.787 3.468-2.365 1.445-0.604 3.639-1.327 6.581-2.167l1.182-0.355v-0.158c0-2.417-1.103-3.626-3.31-3.626-1.077 0-2.233 0.236-3.468 0.709s-2.654 1.235-4.256 2.286l-1.301-4.729c1.787-1.025 3.599-1.826 5.438-2.404 1.865-0.578 3.836-0.867 5.911-0.867 2.522 0 4.453 0.683 5.793 2.049 1.366 1.366 2.049 3.704 2.049 7.015v7.488c0 0.578 0.118 0.998 0.355 1.261 0.237 0.236 0.618 0.355 1.143 0.355 0.499 0 0.998-0.066 1.498-0.197l0.236 4.65zM168.873 25.419c0 0.525 0.131 0.906 0.394 1.143 0.289 0.236 0.736 0.355 1.34 0.355 1.103 0 2.404-0.473 3.901-1.419v-4.177l-0.591 0.197c-1.971 0.709-3.31 1.34-4.020 1.892-0.683 0.526-1.025 1.195-1.025 2.010z"></path>
<path fill="#3470ff" style="fill: var(--color1, #3470ff)" d="M150.364 32c-3.258 0-6.016-0.631-8.276-1.892-2.26-1.287-3.954-2.982-5.084-5.084-1.103-2.128-1.655-4.44-1.655-6.936 0-2.47 0.578-4.755 1.734-6.857 1.182-2.102 2.929-3.783 5.241-5.044s5.097-1.892 8.355-1.892c3.048 0 5.728 0.591 8.040 1.773l-1.419 4.966c-0.972-0.499-1.984-0.893-3.034-1.182-1.051-0.315-2.246-0.473-3.586-0.473-1.708 0-3.192 0.394-4.453 1.182-1.235 0.762-2.181 1.813-2.837 3.153-0.631 1.314-0.946 2.785-0.946 4.414 0 2.575 0.683 4.69 2.049 6.345 1.366 1.629 3.324 2.443 5.872 2.443 2.181 0 4.532-0.539 7.054-1.616l1.34 4.847c-1.077 0.552-2.365 0.998-3.862 1.34s-3.008 0.512-4.532 0.512z"></path>
<path fill="#101828" style="fill: var(--color2, #101828)" d="M123.567 0h6.857v31.527h-6.857v-31.527z"></path>
<path fill="#101828" style="fill: var(--color2, #101828)" d="M120.288 31.291c-0.841 0.184-1.589 0.315-2.246 0.394-0.631 0.079-1.379 0.118-2.246 0.118-2.522 0-4.177-0.814-4.965-2.443-1.104 0.814-2.207 1.432-3.31 1.852s-2.312 0.631-3.626 0.631c-1.182 0-2.246-0.25-3.192-0.749s-1.681-1.169-2.207-2.010c-0.526-0.841-0.788-1.76-0.788-2.759 0-1.682 0.42-3.008 1.261-3.98 0.867-0.998 2.023-1.787 3.468-2.365 1.445-0.604 3.639-1.327 6.581-2.167l1.182-0.355v-0.158c0-2.417-1.103-3.626-3.31-3.626-1.077 0-2.233 0.236-3.468 0.709s-2.653 1.235-4.256 2.286l-1.3-4.729c1.787-1.025 3.599-1.826 5.438-2.404 1.865-0.578 3.836-0.867 5.911-0.867 2.522 0 4.453 0.683 5.793 2.049 1.366 1.366 2.049 3.704 2.049 7.015v7.488c0 0.578 0.118 0.998 0.355 1.261 0.236 0.236 0.617 0.355 1.143 0.355 0.499 0 0.998-0.066 1.498-0.197l0.236 4.65zM104.564 25.419c0 0.525 0.131 0.906 0.394 1.143 0.289 0.236 0.736 0.355 1.34 0.355 1.104 0 2.404-0.473 3.902-1.419v-4.177l-0.591 0.197c-1.97 0.709-3.31 1.34-4.020 1.892-0.683 0.526-1.025 1.195-1.025 2.010z"></path>
<path fill="#101828" style="fill: var(--color2, #101828)" d="M95.248 30.069c-0.788 0.552-1.734 0.985-2.837 1.301-1.077 0.289-2.128 0.433-3.153 0.433-2.785 0-4.86-0.604-6.227-1.813-1.366-1.235-2.049-2.995-2.049-5.281v-10.719h-3.35v-2.877l4.217-1.695 1.892-6.030h4.098v5.754h6.306v4.847h-6.306v9.064c0 1.393 0.223 2.378 0.67 2.956s1.117 0.867 2.010 0.867c1.156 0 2.378-0.342 3.665-1.025l1.064 4.217z"></path>
<path fill="#101828" style="fill: var(--color2, #101828)" d="M66.38 8.67c2.916 0 4.926 0.775 6.029 2.325 1.13 1.55 1.695 3.783 1.695 6.7v13.833h-6.857v-12.966c0-1.839-0.223-3.113-0.67-3.823-0.42-0.709-1.248-1.064-2.483-1.064-1.34 0-2.706 0.447-4.099 1.34v16.512h-6.857v-22.384h5.084l0.709 1.852c2.575-1.55 5.058-2.325 7.448-2.325z"></path>
<path fill="#101828" style="fill: var(--color2, #101828)" d="M34.057 21.596c0.131 1.865 0.591 3.245 1.379 4.138s1.997 1.34 3.626 1.34c1.209 0 2.325-0.21 3.35-0.63 1.051-0.447 2.246-1.103 3.586-1.97l1.852 4.335c-1.392 1.13-2.772 1.944-4.138 2.443s-2.929 0.749-4.69 0.749c-2.601 0-4.782-0.499-6.542-1.498-1.76-1.025-3.074-2.404-3.941-4.138-0.841-1.76-1.261-3.757-1.261-5.99 0-3.547 0.998-6.384 2.995-8.512s4.913-3.192 8.749-3.192c3.048 0 5.36 0.828 6.936 2.483 1.603 1.629 2.417 3.954 2.443 6.975 0 1.182-0.171 2.338-0.512 3.468h-13.833zM41.741 17.143c0.026-0.158 0.039-0.368 0.039-0.631-0.026-1.077-0.315-1.892-0.867-2.443-0.552-0.578-1.314-0.867-2.286-0.867-2.312 0-3.757 1.314-4.335 3.941h7.448z"></path>
<path fill="#101828" style="fill: var(--color2, #101828)" d="M10.877 21.675h-3.783v9.852h-7.094v-26.798h10.719c3.836 0 6.634 0.657 8.394 1.97 1.76 1.287 2.64 3.323 2.64 6.108 0 3.626-1.327 6.056-3.98 7.291l7.527 11.429h-8.197l-6.227-9.852zM7.094 16.749h3.626c1.392 0 2.391-0.289 2.995-0.867 0.631-0.578 0.946-1.471 0.946-2.68 0-1.261-0.302-2.168-0.906-2.719s-1.616-0.828-3.034-0.828h-3.626v7.094z"></path>
</symbol>
  </defs>
</svg>
